<svg width="114" height="114" viewBox="0 0 114 114" fill="none" xmlns="http://www.w3.org/2000/svg">
<circle cx="57" cy="57" r="55.5" stroke="#0540F2" stroke-width="3" stroke-dasharray="6 6"/>
<circle opacity="0.2" cx="58" cy="57" r="40" fill="#0540F2"/>
<path d="M52.15 48.7834H48.7833V52.1501H52.15V48.7834ZM52.15 55.5167H48.7833V58.8834H52.15V55.5167ZM52.15 42.05C50.2815 42.05 48.7833 43.565 48.7833 45.4167H52.15V42.05ZM58.8833 62.2501H55.5167V65.6167H58.8833V62.2501ZM68.9833 42.05V45.4167H72.35C72.35 43.565 70.835 42.05 68.9833 42.05ZM58.8833 42.05H55.5167V45.4167H58.8833V42.05ZM52.15 65.6167V62.2501H48.7833C48.7833 64.1017 50.2815 65.6167 52.15 65.6167ZM68.9833 58.8834H72.35V55.5167H68.9833V58.8834ZM68.9833 52.1501H72.35V48.7834H68.9833V52.1501ZM68.9833 65.6167C70.835 65.6167 72.35 64.1017 72.35 62.2501H68.9833V65.6167ZM45.4167 48.7834H42.05V68.9834C42.05 70.8351 43.5482 72.3501 45.4167 72.3501H65.6167V68.9834H45.4167V48.7834ZM62.25 45.4167H65.6167V42.05H62.25V45.4167ZM62.25 65.6167H65.6167V62.2501H62.25V65.6167Z" fill="#2E5FF2"/>
</svg>
