<svg width="41" height="41" viewBox="0 0 41 41" fill="none" xmlns="http://www.w3.org/2000/svg">
<path d="M15.15 26.9334H18.5167V13.4667H15.15V26.9334ZM20.2 3.3667C10.908 3.3667 3.36667 10.908 3.36667 20.2C3.36667 29.492 10.908 37.0334 20.2 37.0334C29.492 37.0334 37.0333 29.492 37.0333 20.2C37.0333 10.908 29.492 3.3667 20.2 3.3667ZM20.2 33.6667C12.7765 33.6667 6.73333 27.6235 6.73333 20.2C6.73333 12.7765 12.7765 6.73337 20.2 6.73337C27.6235 6.73337 33.6667 12.7765 33.6667 20.2C33.6667 27.6235 27.6235 33.6667 20.2 33.6667ZM21.8833 26.9334H25.25V13.4667H21.8833V26.9334Z" fill="black"/>
</svg>
