<svg width="42" height="41" viewBox="0 0 42 41" fill="none" xmlns="http://www.w3.org/2000/svg">
<path d="M33.0319 21.9762C33.0925 21.471 33.1329 20.9456 33.1329 20.4C33.1329 19.8544 33.0925 19.329 33.0117 18.8238L36.4268 16.1563C36.7299 15.9138 36.8108 15.4692 36.6289 15.1257L33.3956 9.52804C33.1935 9.1643 32.7692 9.04305 32.4054 9.1643L28.384 10.7809C27.5353 10.1343 26.6461 9.60887 25.6559 9.20471L25.0497 4.9206C24.989 4.51643 24.6455 4.23352 24.2413 4.23352H17.7748C17.3706 4.23352 17.0473 4.51643 16.9866 4.9206L16.3804 9.20471C15.3902 9.60887 14.4808 10.1545 13.6523 10.7809L9.63089 9.1643C9.26715 9.02284 8.84278 9.1643 8.6407 9.52804L5.4074 15.1257C5.20532 15.4894 5.28616 15.9138 5.60949 16.1563L9.02465 18.8238C8.94382 19.329 8.8832 19.8746 8.8832 20.4C8.8832 20.9254 8.92361 21.471 9.00444 21.9762L5.58928 24.6437C5.28616 24.8862 5.20532 25.3308 5.3872 25.6743L8.62049 31.2719C8.82257 31.6357 9.24694 31.7569 9.61069 31.6357L13.6321 30.019C14.4808 30.6657 15.37 31.1911 16.3602 31.5953L16.9664 35.8794C17.0473 36.2836 17.3706 36.5665 17.7748 36.5665H24.2413C24.6455 36.5665 24.989 36.2836 25.0295 35.8794L25.6357 31.5953C26.6259 31.1911 27.5353 30.6455 28.3638 30.019L32.3852 31.6357C32.7489 31.7772 33.1733 31.6357 33.3754 31.2719L36.6087 25.6743C36.8108 25.3106 36.7299 24.8862 36.4066 24.6437L33.0319 21.9762ZM21.008 26.4624C17.6737 26.4624 14.9456 23.7343 14.9456 20.4C14.9456 17.0657 17.6737 14.3376 21.008 14.3376C24.3424 14.3376 27.0705 17.0657 27.0705 20.4C27.0705 23.7343 24.3424 26.4624 21.008 26.4624Z" fill="#EDEDED"/>
</svg>
