<svg width="41" height="41" viewBox="0 0 41 41" fill="none" xmlns="http://www.w3.org/2000/svg">
<path d="M15.1495 20.1792C13.988 20.1792 13.0454 21.1219 13.0454 22.2834C13.0454 23.4449 13.988 24.3876 15.1495 24.3876C16.311 24.3876 17.2537 23.4449 17.2537 22.2834C17.2537 21.1219 16.311 20.1792 15.1495 20.1792ZM25.2495 20.1792C24.088 20.1792 23.1454 21.1219 23.1454 22.2834C23.1454 23.4449 24.088 24.3876 25.2495 24.3876C26.411 24.3876 27.3537 23.4449 27.3537 22.2834C27.3537 21.1219 26.411 20.1792 25.2495 20.1792ZM20.1995 3.76672C10.9075 3.76672 3.36621 11.3081 3.36621 20.6001C3.36621 29.8921 10.9075 37.4334 20.1995 37.4334C29.4915 37.4334 37.0329 29.8921 37.0329 20.6001C37.0329 11.3081 29.4915 3.76672 20.1995 3.76672ZM20.1995 34.0667C12.776 34.0667 6.73288 28.0236 6.73288 20.6001C6.73288 20.1119 6.76655 19.6237 6.81705 19.1524C10.7897 17.3849 13.9375 14.1361 15.5872 10.1129C18.634 14.4222 23.6504 17.2334 29.3232 17.2334C30.6362 17.2334 31.8987 17.0819 33.1107 16.7957C33.4642 17.9909 33.6662 19.2702 33.6662 20.6001C33.6662 28.0236 27.623 34.0667 20.1995 34.0667Z" fill="#DCE2F3"/>
</svg>
