<svg width="41" height="42" viewBox="0 0 41 42" fill="none" xmlns="http://www.w3.org/2000/svg">
<path d="M25.262 2.50427H15.1572V5.8726H25.262V2.50427ZM18.5255 24.3984H21.8937V14.2934H18.5255V24.3984ZM32.049 13.2661L34.4405 10.8746C33.7163 10.0156 32.9248 9.20725 32.0658 8.4999L29.6744 10.8914C27.064 8.80305 23.78 7.55677 20.2096 7.55677C11.8395 7.55677 5.05249 14.3439 5.05249 22.7142C5.05249 31.0845 11.8227 37.8717 20.2096 37.8717C28.5965 37.8717 35.3667 31.0845 35.3667 22.7142C35.3667 19.1438 34.1205 15.8597 32.049 13.2661ZM20.2096 34.5034C13.692 34.5034 8.42074 29.232 8.42074 22.7142C8.42074 16.1965 13.692 10.9251 20.2096 10.9251C26.7272 10.9251 31.9985 16.1965 31.9985 22.7142C31.9985 29.232 26.7272 34.5034 20.2096 34.5034Z" fill="#EDEDED"/>
</svg>
