<svg width="41" height="41" viewBox="0 0 41 41" fill="none" xmlns="http://www.w3.org/2000/svg">
<path d="M6.73331 10.1H3.36664V33.6666C3.36664 35.5183 4.88164 37.0333 6.73331 37.0333H30.3V33.6666H6.73331V10.1ZM33.6666 3.36664H13.4666C11.615 3.36664 10.1 4.88164 10.1 6.73331V26.9333C10.1 28.785 11.615 30.3 13.4666 30.3H33.6666C35.5183 30.3 37.0333 28.785 37.0333 26.9333V6.73331C37.0333 4.88164 35.5183 3.36664 33.6666 3.36664ZM31.9833 18.5166H25.25V25.25H21.8833V18.5166H15.15V15.15H21.8833V8.41664H25.25V15.15H31.9833V18.5166Z" fill="#EDEDED"/>
</svg>
