<svg width="120" height="120" viewBox="0 0 120 120" fill="none" xmlns="http://www.w3.org/2000/svg">
<rect width="120" height="120" fill="white"/>
<circle cx="60" cy="60" r="32" fill="#0528F2"/>
<path d="M53.4766 61.0625V74.8203C54.1016 75.3359 54.8906 75.625 55.8438 75.6875V77H45.9766V75.6875C46.8984 75.625 47.6719 75.3359 48.2969 74.8203V44.7031C47.6719 44.0938 46.8984 43.7734 45.9766 43.7422V42.125H55.8438V43.7422C54.8906 43.7734 54.1016 44.0938 53.4766 44.7031V56.2812L62.8047 44.7031C62.1797 44.0938 61.4062 43.7734 60.4844 43.7422V42.125H68.7109V43.7422C67.7578 43.7734 66.9688 44.0938 66.3438 44.7031L59.7812 53L68.2188 74.7969C68.8438 75.3281 69.6328 75.625 70.5859 75.6875V77H62.3594V75.6875C63.2812 75.625 64.0547 75.3281 64.6797 74.7969L57.6484 55.9062L53.4766 61.0625Z" fill="#EDEDED"/>
</svg>
